<?xml version="1.0" encoding="utf-8"?>
<!-- Generator: Adobe Illustrator 25.2.3, SVG Export Plug-In . SVG Version: 6.00 Build 0)  -->
<svg version="1.1" id="Layer_1" xmlns="http://www.w3.org/2000/svg" xmlns:xlink="http://www.w3.org/1999/xlink" x="0px" y="0px"
	 viewBox="0 0 267 313.4" style="enable-background:new 0 0 267 313.4;" xml:space="preserve">
<style type="text/css">
	.st0{fill-rule:evenodd;clip-rule:evenodd;}
</style>
<g>
	<path class="st0" d="M184.4,282c4.7,18.1-11.7,35.7-30.9,30.5c-19.1-5.1-24.6-28.5-11.5-41.9L184.4,282z"/>
	<path class="st0" d="M13.1,227.3c-24.1-5.7-13.7-41.7,9.5-35.5c20.5,5.5,40.2-62.4,45.9-86.5c14.6-54.6,54-78.5,93.4-78.2
		c1.2-18,18.3-30.2,35.6-26.3c16.9,5.3,25.7,24.4,17.7,40.6c34.3,19.4,56.5,59.8,41.8,114.4c-7.1,23.7-24,92.4-3.5,97.9
		c23.2,6.2,14.2,42.6-9.5,35.5L13.1,227.3z M101.7,120.7c-0.6,5-5.8,8-9.9,6.9c-5.5-1.5-8-5.8-6.5-11.3
		c5.7-24.1,22.2-55.5,49.6-62.1c11-2.9,14.7,13.5,3.7,16.4C118.8,76.2,106.5,103,101.7,120.7z M175.9,27.1
		c9.9,1.2,18.1,3.4,27.3,7.3c3.6-7.8-0.6-17-9.3-20.1C184.8,12.7,176.7,18.6,175.9,27.1z"/>
</g>
</svg>
