<?xml version="1.0" encoding="utf-8"?>
<!-- Generator: Adobe Illustrator 25.2.3, SVG Export Plug-In . SVG Version: 6.00 Build 0)  -->
<svg version="1.1" id="Layer_1"
	xmlns="http://www.w3.org/2000/svg"
	xmlns:xlink="http://www.w3.org/1999/xlink" x="0px" y="0px" viewBox="0 0 100 100" style="enable-background:new 0 0 100 100;" xml:space="preserve">
	<polygon class="st0" points="93.6,75.6 93.6,26.7 56,48.4 51.3,51.1 51.3,100 "/>
	<polygon class="st0" points="50,0 7.7,24.4 24.7,34.3 67,9.8 "/>
	<polygon class="st0" points="73.3,13.5 31,37.9 34.2,39.7 50,48.9 65.7,39.8 92.3,24.4 "/>
	<polygon class="st0" points="29.3,53.8 28.9,52.8 28.5,53.4 28.2,52.4 27.6,52.9 27.3,52 26.8,52.4 26.4,51.4 25.9,51.9 25.6,50.9 
	25.1,51.5 24.9,50.5 24.4,51.2 24.1,50.2 23.7,50.8 23.5,50 23.5,36.6 6.4,26.7 6.4,75.6 48.7,100 48.7,51.1 29.6,40.1 29.6,53.2 
	"/>
</svg>
