<?xml version="1.0" encoding="utf-8"?>
<!-- Generator: Adobe Illustrator 25.2.3, SVG Export Plug-In . SVG Version: 6.00 Build 0)  -->
<svg version="1.1" id="Layer_1" xmlns="http://www.w3.org/2000/svg" xmlns:xlink="http://www.w3.org/1999/xlink" x="0px" y="0px"
	 viewBox="0 0 28 28" style="enable-background:new 0 0 28 28;" xml:space="preserve">
<path d="M9,12H1c-0.6,0-1,0.4-1,1v12c0,1.7,1.3,3,3,3h6c0.6,0,1-0.4,1-1V13C10,12.4,9.6,12,9,12z"/>
<path d="M25,0H3C1.3,0,0,1.3,0,3v6c0,0.6,0.4,1,1,1h26c0.6,0,1-0.4,1-1V3C28,1.3,26.7,0,25,0z"/>
<path d="M27,12H13c-0.6,0-1,0.4-1,1v14c0,0.6,0.4,1,1,1h12c1.7,0,3-1.3,3-3V13C28,12.4,27.6,12,27,12z"/>
</svg>
