<?xml version="1.0" encoding="utf-8"?>
<!-- Generator: Adobe Illustrator 25.2.3, SVG Export Plug-In . SVG Version: 6.00 Build 0)  -->
<svg version="1.1" id="Layer_1" xmlns="http://www.w3.org/2000/svg" xmlns:xlink="http://www.w3.org/1999/xlink" x="0px" y="0px"
	 viewBox="0 0 30 30" style="enable-background:new 0 0 30 30;" xml:space="preserve">
<path d="M25,0H5C2.2,0,0,2.2,0,5v20c0,2.8,2.2,5,5,5h20c2.8,0,5-2.2,5-5V5C30,2.2,27.8,0,25,0z M9,16H5c-0.6,0-1-0.4-1-1
	c0-0.6,0.4-1,1-1h4c0.6,0,1,0.4,1,1C10,15.6,9.6,16,9,16z M9,11H5c-0.6,0-1-0.4-1-1s0.4-1,1-1h4c0.6,0,1,0.4,1,1S9.6,11,9,11z M9,6
	H5C4.4,6,4,5.6,4,5s0.4-1,1-1h4c0.6,0,1,0.4,1,1S9.6,6,9,6z M28,25c0,1.7-1.3,3-3,3H14V2h11c1.7,0,3,1.3,3,3V25z"/>
</svg>
