<?xml version="1.0" encoding="utf-8"?>
<!-- Generator: Adobe Illustrator 25.2.3, SVG Export Plug-In . SVG Version: 6.00 Build 0)  -->
<svg version="1.1" id="Layer_1"
	xmlns="http://www.w3.org/2000/svg"
	xmlns:xlink="http://www.w3.org/1999/xlink" x="0px" y="0px" viewBox="0 0 86 20" style="enable-background:new 0 0 86 20;" xml:space="preserve">
<path class="st0" d="M27.6,10h-7.3c-0.1,1.5,0.5,2.6,2.4,2.6c1.3,0,2.6-0.4,3.3-0.7l0.3,2.2c-1,0.5-2.6,0.9-4.5,0.9
	c-3.2,0-5-1.7-5-4.6c0-1.8,0.6-3.8,1.7-5.2c1.2-1.7,3-2.6,5.3-2.6c2.7,0,4.3,1.5,4.3,4.2C28.1,7.5,27.9,8.9,27.6,10z M23.4,4.6
	c-1,0-1.9,0.7-2.5,1.9c-0.3,0.5-0.3,0.7-0.5,1.3h4.3c0.1-0.3,0.2-0.9,0.2-1.3C25,5.2,24.4,4.6,23.4,4.6z"/>
<path class="st0" d="M4.8,18.3H1.5L0,2.9h3.6l0.6,10.5l5-10.5h3.6L4.8,18.3z"/>
<path class="st0" d="M35.4,5.2h-1.9l-1.4,6.3c-0.1,0.2-0.3,1.3,0.9,1.3c0.3,0,0.8-0.1,1-0.1c0,0-0.5,2.5-3.1,2.5
	c-1.9,0-2.8-1.4-2.4-3.5l2.3-10.5c0,0,1.3-1.4,3.8-1C34.2,2.2,34,3,34,3h2L35.4,5.2z"/>
<path class="st0" d="M59.3,5.2h-1.9L56,11.5c-0.1,0.2-0.3,1.3,0.9,1.3c0.3,0,0.8-0.1,1-0.1c0,0-0.5,2.5-3.1,2.5
	c-1.9,0-2.8-1.4-2.4-3.5l2.3-10.4c0,0,1.3-1.4,3.8-1c-0.4,2-0.6,2.8-0.6,2.8h1.9L59.3,5.2z"/>
<path class="st0" d="M51.5,10h-7.3c-0.1,1.5,0.5,2.6,2.4,2.6c1.3,0,2.6-0.4,3.3-0.7l0.3,2.2c-1,0.5-2.6,0.9-4.5,0.9
	c-3.2,0-4.9-1.7-4.9-4.6c0-1.8,0.6-3.8,1.6-5.2c1.2-1.7,3-2.6,5.3-2.6c2.7,0,4.3,1.5,4.3,4.2C52,7.5,51.8,8.9,51.5,10z M47.3,4.6
	c-1,0-1.9,0.7-2.5,1.9c-0.3,0.5-0.3,0.7-0.5,1.3h4.3c0.1-0.3,0.2-0.9,0.2-1.3C48.9,5.2,48.3,4.6,47.3,4.6z"/>
<path class="st0" d="M85.2,5.2c-0.8-0.3-1.8-0.3-2.4-0.1l-2.1,9.8h-3.6l2.5-11.3c1.5-0.8,4.3-1.3,6.4-0.9L85.2,5.2z"/>
<path class="st0" d="M67.9,18.3l0.1-3.4h-4.9l-2,3.4h-3.5l9.6-15.4h3.6l0.6,15.4H67.9z M68,6.4l-3.7,6.4H68V6.4z"/>
<path class="st0" d="M32.1,20c-3.2,0-4.9-2-4.7-4.1c1.6,1.7,4.5,1.8,6.2,0.3c0.6-0.5,1.2-1.4,1.6-3.4c0.8-3.5,2.1-9.9,2.1-9.9h3.6
	l-2.5,11.3C37.7,17.7,35.3,20,32.1,20z"/>
<path class="st0" d="M14.4,14.9h-3.5l2.6-12H17L14.4,14.9z"/>
<path class="st0" d="M75.5,14.9H72l2.6-12h3.6L75.5,14.9z"/>
</svg>
